PathFileType	4	(x/y/z)	S02_PSF_T03
DataRate	CameraRate	NumFrames	NumMarkers	Units	OrigDataRate	OrigDataStartFrame	OrigNumFrames
240	240	9	51	mm	240	99	394
Frame#	Time	Sternum			R.Acromium			L.Acromium			Top.Head			R.ASIS			L.ASIS			R.PSIS			L.PSIS			R.Great.Tro			L.Great.Tro			R.Iliac.Crest			L.Iliac.Crest			V.Sacral			R.Thigh.Upper.Post			R.Thigh.Lower.Ant			R.Thigh.Lower.Post			R.Thigh.Upper.Ant			R.Knee.Lat			R.Knee.Med			R.Shank.Upper.Post			R.Shank.Lower.Ant			R.Shank.Lower.Post			R.Shank.Upper.Ant			R.Ankle.Lat			R.Ankle.Med			R.Heel.Upper			R.Heel.Med			R.Heel.Lat			R.Toe.Lat			R.Toe.Med			R.Toe.Tip			L.Thigh.Upper.Post			L.Thigh.Lower.Ant			L.Thigh.Lower.Post			L.Thigh.Upper.Ant			L.Knee.Lat			L.Knee.Med			L.Shank.Upper.Post			L.Shank.Lower.Ant			L.Shank.Lower.Post			L.Shank.Upper.Ant			L.Ankle.Lat			L.Ankle.Med			L.Heel.Upper			L.Heel.Med			L.Heel.Lat			L.Toe.Lat			L.Toe.Med			L.Toe.Tip			Cervical.Spine			Back			
		X1	Y1	Z1	X2	Y2	Z2	X3	Y3	Z3	X4	Y4	Z4	X5	Y5	Z5	X6	Y6	Z6	X7	Y7	Z7	X8	Y8	Z8	X9	Y9	Z9	X10	Y10	Z10	X11	Y11	Z11	X12	Y12	Z12	X13	Y13	Z13	X14	Y14	Z14	X15	Y15	Z15	X16	Y16	Z16	X17	Y17	Z17	X18	Y18	Z18	X19	Y19	Z19	X20	Y20	Z20	X21	Y21	Z21	X22	Y22	Z22	X23	Y23	Z23	X24	Y24	Z24	X25	Y25	Z25	X26	Y26	Z26	X27	Y27	Z27	X28	Y28	Z28	X29	Y29	Z29	X30	Y30	Z30	X31	Y31	Z31	X32	Y32	Z32	X33	Y33	Z33	X34	Y34	Z34	X35	Y35	Z35	X36	Y36	Z36	X37	Y37	Z37	X38	Y38	Z38	X39	Y39	Z39	X40	Y40	Z40	X41	Y41	Z41	X42	Y42	Z42	X43	Y43	Z43	X44	Y44	Z44	X45	Y45	Z45	X46	Y46	Z46	X47	Y47	Z47	X48	Y48	Z48	X49	Y49	Z49	X50	Y50	Z50	X51	Y51	Z51	

99	0.40833	-921.91	1112.2	273.48	-1039.1	1345.9	412.95	-1030.5	1344.9	117.89	-970.17	1625.3	269.75	-946.15	949.95	369.52	-949.36	928.79	161.96	-1161.7	975.09	334.84	-1172.6	978.46	261.89	-990.42	821.42	478.08	-1082.9	828.14	86.968	-1046.2	987.42	436.99	-1078.8	973.73	107.36	-1192	927.87	295.05	-917.71	637.67	470.42	-835.73	585.73	437.11	-898.62	551.36	451.9	-859.54	671.37	452.88	-858.63	485.05	437.95	-848.31	472.93	296.81	-926.93	276.69	414.35	-845.28	201.96	414.41	-913.31	204.71	408.65	-855.09	270.11	427.52	-887.24	112.37	402.26	-862.56	131.15	321.87	-932.79	90.293	334.57	-909.23	62.337	309.66	-934.82	57.83	368.94	-788.7	63.048	446.64	-732.75	67.527	350.63	-703.83	96.428	416.27	-1145.5	622.31	126.11	-1082.2	531.43	129.57	-1159.5	535.63	151.02	-1075.7	623.76	105.96	-1112.5	454.84	143.73	-1112.9	456.77	283.74	-1221.9	303.59	148.76	-1174	204.75	171.15	NaN	NaN	NaN	-1163.9	279.26	150.75	-1234.1	111.02	185.36	-1226.1	107.45	266.55	-1299	81.235	217.97	-1292.9	55.399	251.06	-1293.8	53.854	189.32	-1129.1	35.255	164.81	-1110.8	44.183	274.85	-1047.4	55.381	229.54	-1106.8	1403.7	262.77	-1186.8	1153.9	268.3
100	0.4125	-916.4	1111.3	273.59	-1033.6	1344.9	413.14	-1024.7	1344.3	118.12	-964.46	1624.5	270.31	-940.25	949.23	369.7	-943.97	927.75	162.17	-1156	974.33	335.37	-1166.9	977.57	262.46	-983.97	820.9	478.46	-1078.2	827.86	87.249	-1040.3	986.82	437.26	-1073.5	972.72	107.71	-1186.1	926.98	295.7	-911.42	636.9	469.99	-829.97	584.74	435.88	-892.71	550.47	451.52	-853.46	670.45	451.66	-852.74	484.32	437.31	-843.51	471.94	295.84	-915.15	274.24	414.08	-831.19	202.13	414.49	-899.21	202.73	408.47	-843.21	270.02	427.47	-870.06	111.02	402.46	-845.57	130.29	322.15	-914.75	87.283	334.64	-890.2	59.959	309.88	-915.87	54.9	369.11	-770.19	64.857	447.26	-714.11	70.849	351.39	-686.33	100.83	417.08	-1142.2	622.62	126.16	-1079.8	531.2	129.76	-1157.1	536.09	151.14	-1072.4	623.45	106.11	-1110.9	454.87	143.83	-1111.7	456.86	283.84	-1221.1	304.1	148.94	-1173.2	205.16	170.95	NaN	NaN	NaN	-1163.1	279.6	150.81	-1233.7	111.35	185.43	-1225.8	107.83	266.67	-1298.8	81.764	218.1	-1292.8	55.947	251.2	-1293.7	54.418	189.44	-1129.1	35.253	164.83	-1110.7	44.166	274.84	-1047.4	55.226	229.54	-1101.1	1402.9	262.9	-1181.1	1153.2	268.28
101	0.41667	-910.88	1110.4	273.71	-1028.1	1343.9	413.34	-1018.9	1343.6	118.36	-958.73	1623.6	270.89	-934.32	948.43	369.89	-938.56	926.64	162.38	-1150.2	973.53	335.88	-1161.1	976.65	263.03	-977.54	820.26	478.8	-1073.4	827.54	87.549	-1034.4	986.14	437.54	-1068.1	971.66	108.06	-1180.2	926.05	296.35	-905.17	636.03	469.58	-824.28	583.63	434.64	-886.85	549.47	451.16	-847.43	669.41	450.41	-846.92	483.49	436.73	-838.82	470.83	294.9	-903.43	271.9	413.84	-817.27	202.45	414.54	-885.21	200.93	408.3	-831.45	270.01	427.42	-853.05	109.93	402.62	-828.78	129.67	322.39	-896.86	84.574	334.7	-871.37	57.904	310.06	-897.06	52.285	369.26	-751.93	66.894	447.75	-695.79	74.426	352.01	-669.15	105.43	417.74	-1138.9	622.87	126.21	-1077.2	530.93	129.97	-1154.5	536.5	151.24	-1069.1	623.08	106.26	-1109.2	454.87	143.95	-1110.3	456.94	283.95	-1220.3	304.61	149.13	-1172.4	205.55	170.78	NaN	NaN	NaN	-1162.3	279.92	150.87	-1233.4	111.7	185.51	-1225.4	108.21	266.8	-1298.6	82.303	218.23	-1292.6	56.504	251.35	-1293.6	54.999	189.57	-1129.1	35.252	164.85	-1110.7	44.151	274.84	-1047.3	55.071	229.54	-1095.4	1402.1	263.06	-1175.3	1152.3	268.28
102	0.42083	-905.35	1109.3	273.84	-1022.6	1342.8	413.56	-1013	1342.8	118.62	-953.01	1622.6	271.48	-928.36	947.56	370.09	-933.14	925.48	162.59	-1144.5	972.69	336.39	-1155.3	975.7	263.6	-971.13	819.51	479.1	-1068.7	827.17	87.868	-1028.5	985.38	437.84	-1062.7	970.56	108.41	-1174.3	925.09	297	-898.95	635.08	469.21	-818.67	582.4	433.42	-881.04	548.38	450.83	-841.47	668.27	449.13	-841.16	482.56	436.22	-834.22	469.6	293.97	-891.78	269.69	413.63	-803.53	202.91	414.55	-871.34	199.31	408.13	-819.83	270.08	427.36	-836.22	109.09	402.75	-812.22	129.27	322.59	-879.18	82.161	334.74	-852.79	56.162	310.21	-878.44	49.977	369.39	-733.93	69.142	448.11	-677.84	78.231	352.46	-652.31	110.2	418.24	-1135.5	623.07	126.25	-1074.6	530.62	130.19	-1151.9	536.86	151.35	-1065.6	622.68	106.42	-1107.3	454.83	144.08	-1108.9	457	284.07	-1219.4	305.11	149.33	-1171.6	205.92	170.63	NaN	NaN	NaN	-1161.3	280.22	150.94	-1233	112.06	185.6	-1225.1	108.6	266.93	-1298.3	82.853	218.37	-1292.5	57.07	251.49	-1293.4	55.597	189.7	-1129.1	35.253	164.87	-1110.6	44.136	274.83	-1047.3	54.916	229.54	-1089.7	1401.2	263.23	-1169.5	1151.5	268.3
103	0.425	-899.8	1108.1	273.98	-1017	1341.7	413.8	-1007.2	1342	118.9	-947.27	1621.6	272.09	-922.38	946.61	370.3	-927.71	924.27	162.8	-1138.7	971.82	336.89	-1149.5	974.72	264.18	-964.76	818.63	479.36	-1063.9	826.76	88.203	-1022.6	984.55	438.16	-1057.3	969.41	108.76	-1168.4	924.1	297.64	-892.77	634.04	468.87	-813.11	581.09	432.22	-875.27	547.2	450.55	-835.56	667.03	447.83	-835.43	481.56	435.77	-829.72	468.27	293.07	-880.22	267.61	413.46	-790	203.49	414.52	-857.62	197.86	407.98	-808.34	270.24	427.3	-819.63	108.49	402.85	-795.95	129.1	322.74	-861.75	80.035	334.78	-834.5	54.721	310.32	-860.06	47.968	369.5	-716.24	71.582	448.34	-660.29	82.23	352.75	-635.84	115.11	418.55	-1132	623.21	126.3	-1071.9	530.26	130.43	-1149.1	537.16	151.47	-1062.1	622.22	106.6	-1105.4	454.75	144.23	-1107.3	457.04	284.2	-1218.5	305.6	149.55	-1170.7	206.26	170.51	NaN	NaN	NaN	-1160.4	280.49	151.03	-1232.7	112.44	185.7	-1224.7	108.99	267.07	-1298.1	83.413	218.5	-1292.3	57.647	251.64	-1293.2	56.213	189.82	-1129	35.255	164.9	-1110.5	44.122	274.83	-1047.2	54.762	229.54	-1083.9	1400.3	263.42	-1163.7	1150.5	268.34
104	0.42917	-894.23	1106.9	274.13	-1011.5	1340.5	414.06	-1001.2	1341.1	119.2	-941.53	1620.6	272.7	-916.38	945.6	370.51	-922.26	923.01	163.01	-1132.9	970.91	337.39	-1143.6	973.73	264.75	-958.4	817.63	479.58	-1059.1	826.28	88.553	-1016.6	983.65	438.5	-1051.9	968.23	109.1	-1162.4	923.09	298.28	-886.62	632.94	468.57	-807.61	579.69	431.04	-869.53	545.94	450.31	-829.71	665.72	446.53	-829.72	480.49	435.38	-825.31	466.85	292.2	-868.77	265.65	413.31	-776.69	204.19	414.44	-844.09	196.59	407.84	-797.01	270.46	427.22	-803.31	108.1	402.9	-780.01	129.14	322.84	-844.63	78.184	334.81	-816.58	53.563	310.39	-841.97	46.245	369.6	-698.87	74.19	448.43	-643.17	86.385	352.85	-619.76	120.11	418.66	-1128.4	623.29	126.36	-1069.1	529.87	130.68	-1146.3	537.4	151.59	-1058.5	621.71	106.79	-1103.3	454.62	144.39	-1105.7	457.05	284.33	-1217.4	306.09	149.77	-1169.8	206.58	170.42	NaN	NaN	NaN	-1159.3	280.74	151.13	-1232.3	112.83	185.81	-1224.3	109.39	267.2	-1297.9	83.986	218.64	-1292.2	58.235	251.78	-1293.1	56.848	189.95	-1129	35.258	164.92	-1110.4	44.107	274.83	-1047.2	54.608	229.55	-1078.2	1399.3	263.64	-1157.8	1149.5	268.39
105	0.43333	-888.65	1105.6	274.29	-1005.8	1339.2	414.34	-995.26	1340.2	119.52	-935.77	1619.5	273.34	-910.36	944.51	370.73	-916.81	921.7	163.21	-1127.1	969.98	337.89	-1137.8	972.72	265.33	-952.07	816.53	479.75	-1054.2	825.76	88.917	-1010.6	982.68	438.85	-1046.4	967.01	109.44	-1156.5	922.06	298.92	-880.49	631.78	468.32	-802.16	578.23	429.88	-863.81	544.63	450.12	-823.89	664.35	445.23	-824.03	479.37	435.05	-820.96	465.35	291.38	-857.44	263.82	413.21	-763.63	204.98	414.32	-830.76	195.48	407.72	-785.84	270.75	427.13	-787.29	107.92	402.92	-764.45	129.36	322.88	-827.85	76.591	334.85	-799.06	52.667	310.44	-824.22	44.792	369.68	-681.87	76.938	448.37	-626.54	90.65	352.76	-604.1	125.18	418.56	-1124.7	623.31	126.43	-1066.2	529.43	130.94	-1143.3	537.58	151.72	-1054.8	621.17	106.99	-1101.2	454.45	144.56	-1103.8	457.01	284.48	-1216.3	306.58	150	-1168.9	206.88	170.36	NaN	NaN	NaN	-1158.2	280.95	151.24	-1232	113.26	185.94	-1223.9	109.8	267.34	-1297.6	84.574	218.77	-1292	58.836	251.92	-1292.9	57.502	190.06	-1129	35.263	164.95	-1110.4	44.092	274.83	-1047.1	54.454	229.55	-1072.4	1398.3	263.89	-1151.9	1148.5	268.47
106	0.4375	-883.04	1104.2	274.47	-1000.2	1337.9	414.64	-989.26	1339.2	119.86	-930.02	1618.3	273.98	-904.32	943.36	370.95	-911.34	920.36	163.4	-1121.2	969.01	338.39	-1132	971.7	265.92	-945.76	815.31	479.87	-1049.3	825.17	89.292	-1004.6	981.65	439.22	-1041	965.76	109.78	-1150.6	921.02	299.56	-874.37	630.57	468.1	-796.73	576.72	428.75	-858.11	543.28	449.97	-818.12	662.93	443.94	-818.33	478.22	434.79	-816.67	463.78	290.59	-846.25	262.12	413.14	-750.83	205.85	414.16	-817.65	194.52	407.62	-774.85	271.08	427.02	-771.6	107.92	402.9	-749.31	129.74	322.87	-811.47	75.237	334.89	-782.01	52.01	310.46	-806.85	43.591	369.76	-665.25	79.795	448.16	-610.42	94.978	352.48	-588.87	130.26	418.23	-1120.9	623.27	126.52	-1063.2	528.95	131.21	-1140.2	537.7	151.87	-1051	620.58	107.2	-1098.8	454.23	144.75	-1101.9	456.92	284.63	-1215	307.07	150.23	-1168	207.14	170.32	NaN	NaN	NaN	-1157.1	281.13	151.37	-1231.7	113.7	186.08	-1223.5	110.21	267.49	-1297.4	85.179	218.9	-1291.8	59.453	252.06	-1292.7	58.177	190.17	-1129	35.267	164.97	-1110.3	44.076	274.82	-1047	54.3	229.55	-1066.5	1397.2	264.15	-1146	1147.3	268.57
107	0.44167	-877.42	1102.8	274.66	-994.5	1336.6	414.96	-983.22	1338.1	120.22	-924.25	1617.2	274.64	-898.27	942.15	371.17	-905.87	918.99	163.59	-1115.4	968.02	338.9	-1126.1	970.66	266.52	-939.46	814	479.95	-1044.4	824.52	89.678	-998.54	980.56	439.61	-1035.6	964.48	110.13	-1144.7	919.97	300.2	-868.27	629.32	467.92	-791.32	575.18	427.67	-852.4	541.89	449.86	-812.38	661.48	442.68	-812.61	477.04	434.57	-812.41	462.16	289.84	-835.21	260.55	413.1	-738.32	206.77	413.94	-804.81	193.7	407.54	-764.04	271.46	426.9	-756.29	108.08	402.83	-734.63	130.26	322.8	-795.53	74.099	334.94	-765.47	51.562	310.46	-789.92	42.619	369.83	-649.06	82.724	447.8	-594.84	99.316	351.99	-574.1	135.31	417.68	-1117.1	623.17	126.65	-1060.1	528.43	131.48	-1137	537.76	152.04	-1047.2	619.95	107.42	-1096.4	453.95	144.94	-1099.7	456.78	284.8	-1213.7	307.55	150.46	-1167	207.38	170.32	NaN	NaN	NaN	-1155.8	281.28	151.51	-1231.3	114.17	186.23	-1223.1	110.63	267.63	-1297.1	85.805	219.03	-1291.7	60.088	252.19	-1292.5	58.875	190.28	-1129	35.273	165	-1110.2	44.06	274.82	-1046.9	54.146	229.56	-1060.7	1396.1	264.45	-1140	1146.2	268.69
